<mxfile host="app.diagrams.net" agent="Mozilla/5.0 (Windows NT 10.0; Win64; x64) AppleWebKit/537.36 (KHTML, like Gecko) Chrome/126.0.0.0 Safari/537.36 Edg/126.0.0.0" version="24.7.5">
  <diagram name="Page-1" id="e7e014a7-5840-1c2e-5031-d8a46d1fe8dd">
    <mxGraphModel dx="1188" dy="694" grid="1" gridSize="10" guides="1" tooltips="1" connect="1" arrows="1" fold="1" page="1" pageScale="1" pageWidth="2069" pageHeight="827" background="none" math="0" shadow="0">
      <root>
        <mxCell id="0" />
        <mxCell id="1" parent="0" />
        <mxCell id="v2y8zBzJBD-hspyHK8kY-41" value="Part &amp;amp; SA" style="shape=umlActor;verticalLabelPosition=bottom;verticalAlign=top;html=1;" vertex="1" parent="1">
          <mxGeometry x="250" y="490" width="30" height="60" as="geometry" />
        </mxCell>
        <mxCell id="v2y8zBzJBD-hspyHK8kY-42" value="Sell" style="shape=umlActor;verticalLabelPosition=bottom;verticalAlign=top;html=1;" vertex="1" parent="1">
          <mxGeometry x="1220" y="400" width="30" height="60" as="geometry" />
        </mxCell>
        <mxCell id="v2y8zBzJBD-hspyHK8kY-44" value="Mechanical" style="shape=umlActor;verticalLabelPosition=bottom;verticalAlign=top;html=1;" vertex="1" parent="1">
          <mxGeometry x="780" y="690" width="30" height="60" as="geometry" />
        </mxCell>
        <mxCell id="v2y8zBzJBD-hspyHK8kY-45" value="Cashier" style="shape=umlActor;verticalLabelPosition=bottom;verticalAlign=top;html=1;" vertex="1" parent="1">
          <mxGeometry x="780" y="400" width="30" height="60" as="geometry" />
        </mxCell>
        <mxCell id="v2y8zBzJBD-hspyHK8kY-48" value="ใบเสนอราคา" style="ellipse;whiteSpace=wrap;html=1;" vertex="1" parent="1">
          <mxGeometry x="470" y="420" width="90" height="50" as="geometry" />
        </mxCell>
        <mxCell id="v2y8zBzJBD-hspyHK8kY-49" value="บิล" style="ellipse;whiteSpace=wrap;html=1;" vertex="1" parent="1">
          <mxGeometry x="400" y="230" width="90" height="50" as="geometry" />
        </mxCell>
        <mxCell id="v2y8zBzJBD-hspyHK8kY-52" value="ใบประเมินราคา" style="ellipse;whiteSpace=wrap;html=1;" vertex="1" parent="1">
          <mxGeometry x="330" y="730" width="90" height="50" as="geometry" />
        </mxCell>
        <mxCell id="v2y8zBzJBD-hspyHK8kY-53" value="การรับชำระ" style="ellipse;whiteSpace=wrap;html=1;" vertex="1" parent="1">
          <mxGeometry x="750" y="160" width="90" height="50" as="geometry" />
        </mxCell>
        <mxCell id="v2y8zBzJBD-hspyHK8kY-55" value="รับเข้าสินค้า" style="ellipse;whiteSpace=wrap;html=1;" vertex="1" parent="1">
          <mxGeometry x="40" y="340" width="90" height="50" as="geometry" />
        </mxCell>
        <mxCell id="v2y8zBzJBD-hspyHK8kY-56" value="สั่งสินค้า" style="ellipse;whiteSpace=wrap;html=1;" vertex="1" parent="1">
          <mxGeometry x="40" y="425" width="90" height="40" as="geometry" />
        </mxCell>
        <mxCell id="v2y8zBzJBD-hspyHK8kY-58" value="ดูข้อมูลและรายการในบิล" style="ellipse;whiteSpace=wrap;html=1;" vertex="1" parent="1">
          <mxGeometry x="875" y="690" width="160" height="60" as="geometry" />
        </mxCell>
        <mxCell id="v2y8zBzJBD-hspyHK8kY-61" style="edgeStyle=orthogonalEdgeStyle;rounded=0;orthogonalLoop=1;jettySize=auto;html=1;exitX=1;exitY=0.5;exitDx=0;exitDy=0;entryX=0.5;entryY=0.5;entryDx=0;entryDy=0;entryPerimeter=0;strokeColor=default;curved=0;endArrow=none;endFill=0;" edge="1" parent="1" source="v2y8zBzJBD-hspyHK8kY-56" target="v2y8zBzJBD-hspyHK8kY-41">
          <mxGeometry relative="1" as="geometry">
            <Array as="points">
              <mxPoint x="265" y="445" />
            </Array>
          </mxGeometry>
        </mxCell>
        <mxCell id="v2y8zBzJBD-hspyHK8kY-62" style="edgeStyle=orthogonalEdgeStyle;rounded=0;orthogonalLoop=1;jettySize=auto;html=1;exitX=1;exitY=0.5;exitDx=0;exitDy=0;entryX=0.5;entryY=0.5;entryDx=0;entryDy=0;entryPerimeter=0;endArrow=none;endFill=0;" edge="1" parent="1" source="v2y8zBzJBD-hspyHK8kY-55" target="v2y8zBzJBD-hspyHK8kY-41">
          <mxGeometry relative="1" as="geometry">
            <mxPoint x="390" y="570" as="sourcePoint" />
            <mxPoint x="340" y="490" as="targetPoint" />
            <Array as="points">
              <mxPoint x="265" y="365" />
            </Array>
          </mxGeometry>
        </mxCell>
        <mxCell id="v2y8zBzJBD-hspyHK8kY-63" style="edgeStyle=orthogonalEdgeStyle;rounded=0;orthogonalLoop=1;jettySize=auto;html=1;exitX=0.5;exitY=0;exitDx=0;exitDy=0;entryX=0.5;entryY=0.5;entryDx=0;entryDy=0;entryPerimeter=0;endArrow=none;endFill=0;" edge="1" parent="1" source="v2y8zBzJBD-hspyHK8kY-52" target="v2y8zBzJBD-hspyHK8kY-41">
          <mxGeometry relative="1" as="geometry">
            <Array as="points">
              <mxPoint x="370" y="730" />
              <mxPoint x="370" y="520" />
            </Array>
          </mxGeometry>
        </mxCell>
        <mxCell id="v2y8zBzJBD-hspyHK8kY-64" style="edgeStyle=orthogonalEdgeStyle;rounded=0;orthogonalLoop=1;jettySize=auto;html=1;exitX=0.5;exitY=1;exitDx=0;exitDy=0;entryX=0.5;entryY=0.5;entryDx=0;entryDy=0;entryPerimeter=0;endArrow=none;endFill=0;" edge="1" parent="1" source="v2y8zBzJBD-hspyHK8kY-48" target="v2y8zBzJBD-hspyHK8kY-41">
          <mxGeometry relative="1" as="geometry">
            <Array as="points">
              <mxPoint x="295" y="520" />
            </Array>
          </mxGeometry>
        </mxCell>
        <mxCell id="v2y8zBzJBD-hspyHK8kY-65" style="edgeStyle=orthogonalEdgeStyle;rounded=0;orthogonalLoop=1;jettySize=auto;html=1;exitX=0.5;exitY=1;exitDx=0;exitDy=0;entryX=0.5;entryY=0.5;entryDx=0;entryDy=0;entryPerimeter=0;endArrow=none;endFill=0;" edge="1" parent="1" source="v2y8zBzJBD-hspyHK8kY-49" target="v2y8zBzJBD-hspyHK8kY-41">
          <mxGeometry relative="1" as="geometry">
            <Array as="points">
              <mxPoint x="445" y="520" />
            </Array>
          </mxGeometry>
        </mxCell>
      </root>
    </mxGraphModel>
  </diagram>
</mxfile>
